<?xml version="1.0" encoding="utf-8"?>
<!-- Generator: Adobe Illustrator 19.1.0, SVG Export Plug-In . SVG Version: 6.00 Build 0)  -->
<!DOCTYPE svg PUBLIC "-//W3C//DTD SVG 1.1//EN" "http://www.w3.org/Graphics/SVG/1.1/DTD/svg11.dtd">
<svg version="1.1" xmlns="http://www.w3.org/2000/svg" xmlns:xlink="http://www.w3.org/1999/xlink" x="0px" y="0px" width="600px"
	 height="600px" viewBox="0 0 600 600" style="enable-background:new 0 0 600 600;" xml:space="preserve">
<style type="text/css">
	.st0{opacity:0.2;fill:#D1D7D4;}
	.st1{opacity:0.3;}
	.st2{filter:url(#Adobe_OpacityMaskFilter);}
	.st3{mask:url(#SVGID_1_);}
	.st4{fill:#D1D7D4;}
	.st5{filter:url(#Adobe_OpacityMaskFilter_1_);}
	.st6{mask:url(#SVGID_2_);}
	.st7{filter:url(#Adobe_OpacityMaskFilter_2_);}
	.st8{mask:url(#SVGID_3_);}
	.st9{filter:url(#Adobe_OpacityMaskFilter_3_);}
	.st10{mask:url(#SVGID_4_);}
	.st11{filter:url(#Adobe_OpacityMaskFilter_4_);}
	.st12{mask:url(#SVGID_5_);}
	.st13{filter:url(#Adobe_OpacityMaskFilter_5_);}
	.st14{mask:url(#SVGID_6_);}
	.st15{filter:url(#Adobe_OpacityMaskFilter_6_);}
	.st16{mask:url(#SVGID_7_);}
	.st17{filter:url(#Adobe_OpacityMaskFilter_7_);}
	.st18{mask:url(#SVGID_8_);}
	.st19{filter:url(#Adobe_OpacityMaskFilter_8_);}
	.st20{mask:url(#SVGID_9_);}
	.st21{filter:url(#Adobe_OpacityMaskFilter_9_);}
	.st22{mask:url(#SVGID_10_);}
	.st23{filter:url(#Adobe_OpacityMaskFilter_10_);}
	.st24{mask:url(#SVGID_11_);}
	.st25{filter:url(#Adobe_OpacityMaskFilter_11_);}
	.st26{mask:url(#SVGID_12_);}
	.st27{filter:url(#Adobe_OpacityMaskFilter_12_);}
	.st28{mask:url(#SVGID_13_);}
	.st29{filter:url(#Adobe_OpacityMaskFilter_13_);}
	.st30{mask:url(#SVGID_14_);}
	.st31{filter:url(#Adobe_OpacityMaskFilter_14_);}
	.st32{mask:url(#SVGID_15_);}
	.st33{filter:url(#Adobe_OpacityMaskFilter_15_);}
	.st34{mask:url(#SVGID_16_);}
	.st35{filter:url(#Adobe_OpacityMaskFilter_16_);}
	.st36{mask:url(#SVGID_17_);}
	.st37{filter:url(#Adobe_OpacityMaskFilter_17_);}
	.st38{mask:url(#SVGID_18_);}
	.st39{filter:url(#Adobe_OpacityMaskFilter_18_);}
	.st40{mask:url(#SVGID_19_);}
	.st41{filter:url(#Adobe_OpacityMaskFilter_19_);}
	.st42{mask:url(#SVGID_20_);}
	.st43{filter:url(#Adobe_OpacityMaskFilter_20_);}
	.st44{mask:url(#SVGID_21_);}
	.st45{filter:url(#Adobe_OpacityMaskFilter_21_);}
	.st46{mask:url(#SVGID_22_);}
	.st47{filter:url(#Adobe_OpacityMaskFilter_22_);}
	.st48{mask:url(#SVGID_23_);}
	.st49{filter:url(#Adobe_OpacityMaskFilter_23_);}
	.st50{mask:url(#SVGID_24_);}
	.st51{filter:url(#Adobe_OpacityMaskFilter_24_);}
	.st52{mask:url(#SVGID_25_);}
	.st53{filter:url(#Adobe_OpacityMaskFilter_25_);}
	.st54{mask:url(#SVGID_26_);}
	.st55{filter:url(#Adobe_OpacityMaskFilter_26_);}
	.st56{mask:url(#SVGID_27_);}
	.st57{filter:url(#Adobe_OpacityMaskFilter_27_);}
	.st58{mask:url(#SVGID_28_);}
	.st59{filter:url(#Adobe_OpacityMaskFilter_28_);}
	.st60{mask:url(#SVGID_29_);}
	.st61{filter:url(#Adobe_OpacityMaskFilter_29_);}
	.st62{mask:url(#SVGID_30_);}
	.st63{filter:url(#Adobe_OpacityMaskFilter_30_);}
	.st64{mask:url(#SVGID_31_);}
	.st65{filter:url(#Adobe_OpacityMaskFilter_31_);}
	.st66{mask:url(#SVGID_32_);}
	.st67{filter:url(#Adobe_OpacityMaskFilter_32_);}
	.st68{mask:url(#SVGID_33_);}
	.st69{filter:url(#Adobe_OpacityMaskFilter_33_);}
	.st70{mask:url(#SVGID_34_);}
	.st71{filter:url(#Adobe_OpacityMaskFilter_34_);}
	.st72{mask:url(#SVGID_35_);}
	.st73{filter:url(#Adobe_OpacityMaskFilter_35_);}
	.st74{mask:url(#SVGID_36_);}
	.st75{filter:url(#Adobe_OpacityMaskFilter_36_);}
	.st76{mask:url(#SVGID_37_);}
	.st77{filter:url(#Adobe_OpacityMaskFilter_37_);}
	.st78{mask:url(#SVGID_38_);}
	.st79{filter:url(#Adobe_OpacityMaskFilter_38_);}
	.st80{mask:url(#SVGID_39_);}
	.st81{filter:url(#Adobe_OpacityMaskFilter_39_);}
	.st82{mask:url(#SVGID_40_);}
	.st83{filter:url(#Adobe_OpacityMaskFilter_40_);}
	.st84{mask:url(#SVGID_41_);}
	.st85{filter:url(#Adobe_OpacityMaskFilter_41_);}
	.st86{mask:url(#SVGID_42_);}
	.st87{filter:url(#Adobe_OpacityMaskFilter_42_);}
	.st88{mask:url(#SVGID_43_);}
	.st89{filter:url(#Adobe_OpacityMaskFilter_43_);}
	.st90{mask:url(#SVGID_44_);}
	.st91{fill:#A2B0AA;}
</style>
<g id="Layer_3">
	<path class="st0" d="M488,583.9H112c-53.7,0-97.3-43.5-97.3-97.3V113.4c0-53.7,43.5-97.3,97.3-97.3H488c53.7,0,97.3,43.5,97.3,97.3
		v373.2C585.2,540.3,541.7,583.9,488,583.9z"/>
</g>
<g id="Layer_2">
</g>
<g id="_x2014_ÎÓÈ_x5F_1">
	<g class="st1">
		<g>
			<path class="st4" d="M440.8,97.6H178.1c-4.2,0-7.7-3.4-7.7-7.7V58.6c0-4.2,3.4-7.7,7.7-7.7h262.7c4.2,0,7.7,3.4,7.7,7.7v31.3
				C448.5,94.2,445,97.6,440.8,97.6z M185.8,82.2h247.3V66.3H185.8V82.2z"/>
		</g>
		<g>
			<path class="st4" d="M455.9,567.4h-87.1c-3.8,0-7-2.7-7.6-6.5l-51.3-324.4H309l-51.3,324.4c-0.6,3.7-3.8,6.5-7.6,6.5h-87.1
				c-2.1,0-4.1-0.8-5.5-2.3c-1.4-1.5-2.2-3.5-2.2-5.6l15.2-469.8c0.1-4.1,3.5-7.4,7.7-7.4h262.7c4.1,0,7.5,3.3,7.7,7.4l15.2,469.8
				c0.1,2.1-0.7,4.1-2.2,5.6C460,566.6,458,567.4,455.9,567.4z M375.4,552H448L433.3,97.6H185.5L170.9,552h72.6l51.3-324.4
				c0.6-3.7,3.8-6.5,7.6-6.5h14c3.8,0,7,2.7,7.6,6.5L375.4,552z"/>
		</g>
		<g>
			<path class="st4" d="M318.3,207.4h-17.7c-2.1,0-3.8-1.7-3.8-3.8V89.9c0-2.1,1.7-3.8,3.8-3.8h17.7c2.1,0,3.8,1.7,3.8,3.8v113.7
				C322.1,205.7,320.4,207.4,318.3,207.4z M304.4,199.7h10v-106h-10V199.7z"/>
		</g>
		<g>
			<path class="st4" d="M174.6,203.7c-1,0-2-0.4-2.7-1.1c-1.5-1.5-1.5-3.9,0-5.4L241,128l-7.1-7.1l-55.8,55.8
				c-1.5,1.5-3.9,1.5-5.4,0s-1.5-3.9,0-5.4l58.5-58.5c1.4-1.4,4-1.4,5.4,0l12.5,12.5c1.5,1.5,1.5,3.9,0,5.4l-71.8,71.8
				C176.5,203.3,175.5,203.7,174.6,203.7z"/>
		</g>
		<g>
			<path class="st4" d="M444.3,203.7c-1,0-2-0.4-2.7-1.1l-71.8-71.8c-0.7-0.7-1.1-1.7-1.1-2.7c0-1,0.4-2,1.1-2.7l12.5-12.5
				c1.5-1.5,3.9-1.5,5.4,0l58.5,58.5c1.5,1.5,1.5,3.9,0,5.4s-3.9,1.5-5.4,0L385,121l-7.1,7.1l69.1,69.1c1.5,1.5,1.5,3.9,0,5.4
				C446.3,203.3,445.3,203.7,444.3,203.7z"/>
		</g>
		<g>
			<path class="st4" d="M318.3,97.6c-4.2,0-7.7-3.4-7.7-7.7V58.6c0-4.2,3.4-7.7,7.7-7.7c4.2,0,7.7,3.4,7.7,7.7v31.3
				C326,94.2,322.5,97.6,318.3,97.6z"/>
		</g>
		<g>
			<path class="st4" d="M253.1,544.4h-89.7c-2.1,0-3.8-1.7-3.8-3.8c0-2.1,1.7-3.8,3.8-3.8h89.7c2.1,0,3.8,1.7,3.8,3.8
				C257,542.7,255.2,544.4,253.1,544.4z"/>
		</g>
		<g>
			<path class="st4" d="M455.5,544.4h-89.7c-2.1,0-3.8-1.7-3.8-3.8c0-2.1,1.7-3.8,3.8-3.8h89.7c2.1,0,3.8,1.7,3.8,3.8
				C459.3,542.7,457.6,544.4,455.5,544.4z"/>
		</g>
		<g>
			<path class="st4" d="M302.6,78.1h-8.9c-2.1,0-3.8-1.7-3.8-3.8c0-2.1,1.7-3.8,3.8-3.8h8.9c2.1,0,3.8,1.7,3.8,3.8
				C306.4,76.4,304.7,78.1,302.6,78.1z"/>
		</g>
	</g>
	<g>
		<g>
			<path class="st91" d="M431.8,87.7H168.2c-4.3,0-7.7-3.4-7.7-7.7V48.7c0-4.3,3.5-7.7,7.7-7.7h263.5c4.3,0,7.7,3.5,7.7,7.7V80
				C439.5,84.3,436,87.7,431.8,87.7z M175.9,72.3H424V56.4H175.9V72.3z"/>
		</g>
		<g>
			<path class="st91" d="M447,559h-87.4c-3.8,0-7-2.8-7.6-6.5l-51.5-325.4h-0.9l-51.5,325.4c-0.6,3.7-3.8,6.5-7.6,6.5H153
				c-2.1,0-4.1-0.8-5.5-2.3c-1.5-1.5-2.2-3.5-2.2-5.6l15.2-471.3c0.1-4.2,3.5-7.5,7.7-7.5h263.5c4.2,0,7.6,3.3,7.7,7.5l15.2,471.3
				c0.1,2.1-0.7,4.1-2.2,5.6C451.1,558.2,449.1,559,447,559z M366.1,543.6H439L424.3,87.7H175.7L161,543.6h72.9l51.5-325.4
				c0.6-3.7,3.8-6.5,7.6-6.5H307c3.8,0,7,2.8,7.6,6.5L366.1,543.6z"/>
		</g>
		<g>
			<path class="st91" d="M308.9,197.9h-17.7c-2.1,0-3.9-1.7-3.9-3.9V80c0-2.1,1.7-3.9,3.9-3.9h17.7c2.1,0,3.9,1.7,3.9,3.9v114
				C312.7,196.2,311,197.9,308.9,197.9z M295,190.2h10V83.9h-10V190.2z"/>
		</g>
		<g>
			<path class="st91" d="M164.7,194.2c-1,0-2-0.4-2.7-1.1c-1.5-1.5-1.5-3.9,0-5.5l69.3-69.3l-7.1-7.1l-56,56c-1.5,1.5-3.9,1.5-5.4,0
				c-1.5-1.5-1.5-3.9,0-5.5l58.7-58.7c1.4-1.4,4-1.4,5.4,0l12.5,12.5c1.5,1.5,1.5,3.9,0,5.4l-72.1,72.1
				C166.7,193.8,165.7,194.2,164.7,194.2z"/>
		</g>
		<g>
			<path class="st91" d="M435.3,194.2c-1,0-2-0.4-2.7-1.1L360.5,121c-0.7-0.7-1.1-1.7-1.1-2.7s0.4-2,1.1-2.7l12.5-12.5
				c1.5-1.5,3.9-1.5,5.4,0l58.7,58.7c1.5,1.5,1.5,3.9,0,5.5c-1.5,1.5-3.9,1.5-5.4,0l-56-56l-7.1,7.1l69.3,69.3
				c1.5,1.5,1.5,3.9,0,5.5C437.3,193.8,436.3,194.2,435.3,194.2z"/>
		</g>
		<g>
			<path class="st91" d="M308.9,87.7c-4.3,0-7.7-3.4-7.7-7.7V48.7c0-4.3,3.5-7.7,7.7-7.7c4.3,0,7.7,3.5,7.7,7.7V80
				C316.6,84.3,313.1,87.7,308.9,87.7z"/>
		</g>
		<g>
			<path class="st91" d="M243.5,535.9h-90c-2.1,0-3.9-1.7-3.9-3.9s1.7-3.9,3.9-3.9h90c2.1,0,3.9,1.7,3.9,3.9
				S245.6,535.9,243.5,535.9z"/>
		</g>
		<g>
			<path class="st91" d="M446.5,535.9h-90c-2.1,0-3.9-1.7-3.9-3.9s1.7-3.9,3.9-3.9h90c2.1,0,3.9,1.7,3.9,3.9
				S448.6,535.9,446.5,535.9z"/>
		</g>
		<g>
			<path class="st91" d="M293.1,68.2h-8.9c-2.1,0-3.9-1.7-3.9-3.9c0-2.1,1.7-3.9,3.9-3.9h8.9c2.1,0,3.9,1.7,3.9,3.9
				C296.9,66.5,295.2,68.2,293.1,68.2z"/>
		</g>
	</g>
</g>
</svg>
