<svg xmlns="http://www.w3.org/2000/svg" xmlns:xlink="http://www.w3.org/1999/xlink" width="440" height="101" viewBox="0 0 440 101"><defs><linearGradient id="a" x1="56.22" y1="7.74" x2="56.22" y2="27.92" gradientUnits="userSpaceOnUse"><stop offset="0" stop-color="#fcf2dd"/><stop offset="0" stop-color="#fdecc0"/><stop offset="0" stop-color="#ffe089"/><stop offset="0.55" stop-color="#ffcc02"/><stop offset="0.68" stop-color="#f6c30d"/><stop offset="1" stop-color="#e2b024"/></linearGradient><linearGradient id="b" x1="16.01" y1="17.01" x2="96.43" y2="97.44" gradientUnits="userSpaceOnUse"><stop offset="0.3" stop-color="#fff"/><stop offset="0.7" stop-color="#e6e6e7"/><stop offset="0.96" stop-color="#dbdcdd"/></linearGradient></defs><title>Suitecase_White_Horz</title><path d="M71.14,7.74H41.3A3.3,3.3,0,0,0,38,11V24.63a3.3,3.3,0,0,0,3.29,3.29h.79V13.39a1.57,1.57,0,0,1,1.56-1.56H68.79a1.57,1.57,0,0,1,1.56,1.56V27.92h.79a3.3,3.3,0,0,0,3.29-3.29V11A3.3,3.3,0,0,0,71.14,7.74Z" style="fill:url(#a)"/><path d="M92,53.7H18.71a2.4,2.4,0,0,1-2.4-2.4V31.49a2.37,2.37,0,0,1,2.37-2.37h75a2.44,2.44,0,0,1,2.44,2.44V47.24a1.27,1.27,0,0,0,1.27,1.27H102a1.28,1.28,0,0,0,1.28-1.28V25.37a3.59,3.59,0,0,0-3.59-3.59h-87a3.59,3.59,0,0,0-3.59,3.59V57.61a3.59,3.59,0,0,0,3.59,3.59h81a2.38,2.38,0,0,1,2.38,2.38V83.33a2.44,2.44,0,0,1-2.44,2.44H18.83a2.52,2.52,0,0,1-2.52-2.52v-15A1.27,1.27,0,0,0,15,67H10.42a1.28,1.28,0,0,0-1.28,1.28V89.08a3.59,3.59,0,0,0,3.59,3.59h87a3.59,3.59,0,0,0,3.59-3.59V57.29a3.59,3.59,0,0,0-3.59-3.59Z" style="fill:url(#b)"/><path d="M159.3,64.46c0-4.37-3.8-6.08-8.68-7.7-4.47-1.51-9.1-3.48-9.1-8.74,0-4.78,4.21-8.42,9.88-8.42a17,17,0,0,1,9.31,2.7l-.83,1.92a15.33,15.33,0,0,0-8.48-2.7c-5.1,0-7.8,3.07-7.8,6.34,0,4,3.64,5.51,8.48,7.18,4.63,1.56,9.26,3.59,9.26,9.21,0,5-4.32,8.89-10.5,8.89a17.78,17.78,0,0,1-9.93-2.91l.83-1.87a16.39,16.39,0,0,0,9.21,2.86C156,71.22,159.3,68.1,159.3,64.46Z" style="fill:#ffe089"/><path d="M192.17,73.14c-7.49,0-11.7-4.63-11.7-12.27V40.12h2.13V60.72c0,6.5,3.28,10.5,9.62,10.5s9.62-4,9.62-10.92V40.12H204V60.35C204,68.15,199.86,73.14,192.17,73.14Z" style="fill:#ffe089"/><path d="M225.29,72.63V40.12h2.18v32.5Z" style="fill:#ffe089"/><path d="M260.44,42.15V72.63h-2.18V42.15H246.77v-2h25.17v2Z" style="fill:#ffe089"/><path d="M313.07,44.08a17.85,17.85,0,0,0-9.15-2.5c-7.07,0-12.74,5.25-12.74,14.87,0,9.15,5.1,14.72,12.84,14.72a15.88,15.88,0,0,0,9-2.65l.52,2a17.71,17.71,0,0,1-9.57,2.6c-9.26,0-15-6.45-15-16.69S295.28,39.6,304,39.6a19.25,19.25,0,0,1,9.72,2.6Z" style="fill:#ffe089"/><path d="M358.25,72.63H356l-3.8-10.14H336.88l-3.8,10.14H330.9l12.43-32.5H346ZM344.63,42l-7,18.46h13.78Z" style="fill:#ffe089"/><path d="M393.41,64.46c0-4.37-3.8-6.08-8.68-7.7-4.47-1.51-9.1-3.48-9.1-8.74,0-4.78,4.21-8.42,9.88-8.42a17,17,0,0,1,9.31,2.7L394,44.23a15.33,15.33,0,0,0-8.48-2.7c-5.1,0-7.8,3.07-7.8,6.34,0,4,3.64,5.51,8.48,7.18,4.63,1.56,9.26,3.59,9.26,9.21,0,5-4.32,8.89-10.5,8.89A17.78,17.78,0,0,1,375,70.23l.83-1.87A16.39,16.39,0,0,0,385,71.22C390.08,71.22,393.41,68.1,393.41,64.46Z" style="fill:#ffe089"/><path d="M415.35,72.63V40.12H434v2H417.53V55.41h13.73v1.92H417.53V70.65H434v2Z" style="fill:#ffe089"/></svg>