<?xml version="1.0" encoding="utf-8"?>
<!-- Generator: Adobe Illustrator 19.1.0, SVG Export Plug-In . SVG Version: 6.00 Build 0)  -->
<!DOCTYPE svg PUBLIC "-//W3C//DTD SVG 1.1//EN" "http://www.w3.org/Graphics/SVG/1.1/DTD/svg11.dtd">
<svg version="1.1" id="Layer_1" xmlns="http://www.w3.org/2000/svg" xmlns:xlink="http://www.w3.org/1999/xlink" x="0px" y="0px"
	 width="114px" height="118px" viewBox="0 0 114 118" style="enable-background:new 0 0 114 118;" xml:space="preserve">
<style type="text/css">
	.st0{fill:url(#SVGID_1_);}
	.st1{fill:url(#SVGID_2_);}
	.st2{fill:url(#SVGID_3_);}
	.st3{fill:url(#SVGID_4_);}
	.st4{fill:url(#SVGID_5_);}
	.st5{fill:url(#SVGID_6_);}
	.st6{fill:#FFE089;}
	.st7{fill:url(#SVGID_7_);}
	.st8{fill:url(#SVGID_8_);}
	.st9{fill:url(#SVGID_9_);}
	.st10{fill:url(#SVGID_10_);}
	.st11{fill:url(#SVGID_11_);}
	.st12{fill:url(#SVGID_12_);}
</style>
<linearGradient id="SVGID_1_" gradientUnits="userSpaceOnUse" x1="56.8595" y1="4.7446" x2="56.8595" y2="24.9224">
	<stop  offset="0.4168" style="stop-color:#AF710D"/>
	<stop  offset="0.7542" style="stop-color:#7D4510"/>
</linearGradient>
<path class="st0" d="M71.8,4.7H41.9c-1.8,0-3.3,1.5-3.3,3.3v13.6c0,1.8,1.5,3.3,3.3,3.3h0.8V10.4c0-0.9,0.7-1.6,1.6-1.6h25.1
	c0.9,0,1.6,0.7,1.6,1.6v14.5h0.8c1.8,0,3.3-1.5,3.3-3.3V8C75.1,6.2,73.6,4.7,71.8,4.7z"/>
<linearGradient id="SVGID_2_" gradientUnits="userSpaceOnUse" x1="20.8951" y1="11.3642" x2="92.8238" y2="97.0854">
	<stop  offset="0" style="stop-color:#7C3824"/>
	<stop  offset="0.5393" style="stop-color:#500000"/>
	<stop  offset="1" style="stop-color:#2C0000"/>
</linearGradient>
<path class="st1" d="M92.6,50.7H71.2H19.4c-1.3,0-2.4-1.1-2.4-2.4V28.5c0-1.3,1.1-2.4,2.4-2.4h75c1.3,0,2.4,1.1,2.4,2.4v15.7
	c0,0.7,0.6,1.3,1.3,1.3h4.6c0.7,0,1.3-0.6,1.3-1.3V22.4c0-2-1.6-3.6-3.6-3.6h-87c-2,0-3.6,1.6-3.6,3.6v32.2c0,2,1.6,3.6,3.6,3.6h7.7
	h16.6h56.6c1.3,0,2.4,1.1,2.4,2.4v19.8c0,1.3-1.1,2.4-2.4,2.4H19.5c-1.4,0-2.5-1.1-2.5-2.5v-15c0-0.7-0.6-1.3-1.3-1.3h-4.6
	c-0.7,0-1.3,0.6-1.3,1.3v20.8c0,2,1.6,3.6,3.6,3.6h87c2,0,3.6-1.6,3.6-3.6V54.3c0-2-1.6-3.6-3.6-3.6H92.6z"/>
<g>
	<path d="M16,108.5c0-1.3-1-1.8-2.7-2.3c-1.5-0.4-3.1-1.1-3.1-3c0-1.7,1.5-2.9,3.5-2.9c1.2,0,2.3,0.3,3.2,0.9l-0.4,1
		c-0.8-0.6-1.9-0.9-2.8-0.9c-1.6,0-2.4,0.9-2.4,1.8c0,1.2,1.1,1.6,2.7,2.2c1.6,0.5,3.1,1.2,3.1,3.1c0,1.8-1.5,3.1-3.6,3.1
		c-1.3,0-2.5-0.4-3.5-1l0.4-1c0.9,0.6,1.9,1,3.1,1C15,110.5,16,109.6,16,108.5z"/>
	<path d="M26.7,111.5c-2.6,0-4-1.6-4-4.2v-6.8h1.1v6.7c0,2.1,1,3.3,3,3.3c1.9,0,3-1.2,3-3.3c0,0.1,0-6.7,0-6.7h1.1c0,0,0,6.6,0,6.7
		C30.8,109.9,29.4,111.5,26.7,111.5z"/>
	<path d="M37.1,111.3v-10.8h1.1v10.8H37.1z"/>
	<path d="M48.5,101.5v9.8h-1.1v-9.8h-3.8v-1h8.7v1H48.5z"/>
	<path d="M65.2,102.2c-0.9-0.6-1.9-0.9-3-0.9c-2.3,0-4.1,1.7-4.1,4.6c0,2.8,1.6,4.6,4.1,4.6c1.2,0,2.3-0.4,3-1l0.2,1.1
		c-0.8,0.5-2,0.9-3.2,0.9c-3.1,0-5.2-2.2-5.2-5.6c0-3.4,2.2-5.6,5.2-5.6c1.3,0,2.5,0.4,3.3,0.9L65.2,102.2z"/>
	<path d="M79.6,111.3h-1.1l-1.1-3.1h-4.9l-1.1,3.1h-1.1l4.1-10.8h1.3L79.6,111.3z M74.9,101.6l-2.1,5.6h4.1L74.9,101.6z"/>
	<path d="M90.2,108.5c0-1.3-1-1.8-2.7-2.3c-1.5-0.4-3.1-1.1-3.1-3c0-1.7,1.4-2.9,3.5-2.9c1.2,0,2.3,0.3,3.2,0.9l-0.4,1
		c-0.8-0.6-1.9-0.9-2.8-0.9c-1.6,0-2.4,0.9-2.4,1.8c0,1.2,1.1,1.6,2.7,2.2c1.6,0.5,3.1,1.2,3.1,3.1c0,1.8-1.5,3.1-3.6,3.1
		c-1.3,0-2.5-0.4-3.5-1l0.4-1c0.9,0.6,1.9,1,3.1,1C89.1,110.5,90.2,109.6,90.2,108.5z"/>
	<path d="M96.9,111.3v-10.8h6.5v1H98v3.9h4.5v1H98v3.9h5.4v1H96.9z"/>
</g>
</svg>
