<?xml version="1.0" encoding="utf-8"?>
<!-- Generator: Adobe Illustrator 19.1.0, SVG Export Plug-In . SVG Version: 6.00 Build 0)  -->
<!DOCTYPE svg PUBLIC "-//W3C//DTD SVG 1.1//EN" "http://www.w3.org/Graphics/SVG/1.1/DTD/svg11.dtd">
<svg version="1.1" id="Layer_1" xmlns="http://www.w3.org/2000/svg" xmlns:xlink="http://www.w3.org/1999/xlink" x="0px" y="0px"
	 width="423px" height="101px" viewBox="0 0 423 101" style="enable-background:new 0 0 423 101;" xml:space="preserve">
<style type="text/css">
	.st0{fill:url(#SVGID_1_);}
	.st1{fill:url(#SVGID_2_);}
	.st2{fill:url(#SVGID_3_);}
	.st3{fill:url(#SVGID_4_);}
	.st4{fill:url(#SVGID_5_);}
	.st5{fill:url(#SVGID_6_);}
	.st6{fill:#FFE089;}
	.st7{fill:url(#SVGID_7_);}
	.st8{fill:url(#SVGID_8_);}
	.st9{fill:url(#SVGID_9_);}
	.st10{fill:url(#SVGID_10_);}
	.st11{fill:url(#SVGID_11_);}
	.st12{fill:url(#SVGID_12_);}
</style>
<linearGradient id="SVGID_1_" gradientUnits="userSpaceOnUse" x1="56.2188" y1="7.7446" x2="56.2188" y2="27.9224">
	<stop  offset="0" style="stop-color:#FCF2DD"/>
	<stop  offset="0" style="stop-color:#FDECC0"/>
	<stop  offset="0" style="stop-color:#FFE089"/>
	<stop  offset="0.5506" style="stop-color:#FFCC02"/>
	<stop  offset="0.6767" style="stop-color:#F6C30D"/>
	<stop  offset="1" style="stop-color:#E2B024"/>
</linearGradient>
<path class="st0" d="M71.1,7.7H41.3C39.5,7.7,38,9.2,38,11v13.6c0,1.8,1.5,3.3,3.3,3.3h0.8V13.4c0-0.9,0.7-1.6,1.6-1.6h25.1
	c0.9,0,1.6,0.7,1.6,1.6v14.5h0.8c1.8,0,3.3-1.5,3.3-3.3V11C74.4,9.2,72.9,7.7,71.1,7.7z"/>
<linearGradient id="SVGID_2_" gradientUnits="userSpaceOnUse" x1="16.0053" y1="17.0113" x2="96.4324" y2="97.4384">
	<stop  offset="0.3046" style="stop-color:#FFFFFF"/>
	<stop  offset="0.7041" style="stop-color:#E6E6E7"/>
	<stop  offset="0.9602" style="stop-color:#DBDCDD"/>
</linearGradient>
<path class="st1" d="M92,53.7H70.5H18.7c-1.3,0-2.4-1.1-2.4-2.4V31.5c0-1.3,1.1-2.4,2.4-2.4h75c1.3,0,2.4,1.1,2.4,2.4v15.7
	c0,0.7,0.6,1.3,1.3,1.3h4.6c0.7,0,1.3-0.6,1.3-1.3V25.4c0-2-1.6-3.6-3.6-3.6h-87c-2,0-3.6,1.6-3.6,3.6v32.2c0,2,1.6,3.6,3.6,3.6h7.7
	h16.6h56.6c1.3,0,2.4,1.1,2.4,2.4v19.8c0,1.3-1.1,2.4-2.4,2.4H18.8c-1.4,0-2.5-1.1-2.5-2.5v-15c0-0.7-0.6-1.3-1.3-1.3h-4.6
	c-0.7,0-1.3,0.6-1.3,1.3v20.8c0,2,1.6,3.6,3.6,3.6h87c2,0,3.6-1.6,3.6-3.6V57.3c0-2-1.6-3.6-3.6-3.6H92z"/>
<g>
	<path class="st6" d="M139.3,64.5c0-4.4-3.8-6.1-8.7-7.7c-4.5-1.5-9.1-3.5-9.1-8.7c0-4.8,4.2-8.4,9.9-8.4c3.7,0,6.9,1.1,9.3,2.7
		l-0.8,1.9c-2.4-1.7-5.5-2.7-8.5-2.7c-5.1,0-7.8,3.1-7.8,6.3c0,4,3.6,5.5,8.5,7.2c4.6,1.6,9.3,3.6,9.3,9.2c0,5-4.3,8.9-10.5,8.9
		c-4,0-7.2-1.1-9.9-2.9l0.8-1.9c2.4,1.7,5.6,2.9,9.2,2.9C136,71.2,139.3,68.1,139.3,64.5z"/>
	<path class="st6" d="M172.2,73.1c-7.5,0-11.7-4.6-11.7-12.3V40.1h2.1v20.6c0,6.5,3.3,10.5,9.6,10.5c6.4,0,9.6-4,9.6-10.9V40.1h2.1
		v20.2C184,68.2,179.9,73.1,172.2,73.1z"/>
	<path class="st6" d="M205.3,72.6V40.1h2.2v32.5H205.3z"/>
	<path class="st6" d="M240.4,42.2v30.5h-2.2V42.2h-11.5v-2h25.2v2H240.4z"/>
	<path class="st6" d="M293.1,44.1c-2.3-1.5-5.7-2.5-9.2-2.5c-7.1,0-12.7,5.3-12.7,14.9c0,9.2,5.1,14.7,12.8,14.7
		c3.5,0,6.8-1.1,9-2.7l0.5,2c-2.2,1.5-5.6,2.6-9.6,2.6c-9.3,0-15-6.4-15-16.7c0-10.3,6.3-16.8,15.1-16.8c4.2,0,7.6,1.4,9.7,2.6
		L293.1,44.1z"/>
	<path class="st6" d="M338.3,72.6H336l-3.8-10.1h-15.3l-3.8,10.1h-2.2l12.4-32.5h2.7L338.3,72.6z M324.6,42l-7,18.5h13.8L324.6,42z"
		/>
	<path class="st6" d="M373.4,64.5c0-4.4-3.8-6.1-8.7-7.7c-4.5-1.5-9.1-3.5-9.1-8.7c0-4.8,4.2-8.4,9.9-8.4c3.7,0,6.9,1.1,9.3,2.7
		l-0.8,1.9c-2.4-1.7-5.5-2.7-8.5-2.7c-5.1,0-7.8,3.1-7.8,6.3c0,4,3.6,5.5,8.5,7.2c4.6,1.6,9.3,3.6,9.3,9.2c0,5-4.3,8.9-10.5,8.9
		c-4,0-7.2-1.1-9.9-2.9l0.8-1.9c2.4,1.7,5.6,2.9,9.2,2.9C370.1,71.2,373.4,68.1,373.4,64.5z"/>
	<path class="st6" d="M395.3,72.6V40.1H414v2h-16.4v13.3h13.7v1.9h-13.7v13.3H414v2H395.3z"/>
</g>
</svg>
