<svg xmlns="http://www.w3.org/2000/svg" width="80" height="67.33" viewBox="0 0 80 67.33"><title>Weather_Artboard 5</title><path d="M43,48H19.75a4.91,4.91,0,0,1-1.9-.38A8.28,8.28,0,0,1,19,31.51a8.33,8.33,0,0,1,7.54-4.88,8.2,8.2,0,0,1,2.7.45,9.26,9.26,0,0,1,16.42,4.79A8.28,8.28,0,0,1,43,48Zm-.3-1.61H43a6.68,6.68,0,0,0,1.75-13.12.8.8,0,0,1-.59-.73,7.66,7.66,0,0,0-13.94-4,.8.8,0,0,1-1,.27,6.6,6.6,0,0,0-2.66-.55,6.72,6.72,0,0,0-6.24,4.3.8.8,0,0,1-.67.51,6.68,6.68,0,0,0-1.29,13l.08,0a3.32,3.32,0,0,0,1.31.27H42.66Z" style="fill:#bcbec0"/><path d="M59.66,43.7h-9.6V42.1h9.6A6.68,6.68,0,0,0,61.41,29a.8.8,0,0,1-.59-.73,7.66,7.66,0,0,0-13.94-4,.8.8,0,0,1-1,.27,6.66,6.66,0,0,0-6.74.84l-1-1.26A8.26,8.26,0,0,1,46,22.82a9.26,9.26,0,0,1,16.42,4.79,8.28,8.28,0,0,1-2.72,16.1Z" style="fill:#bcbec0"/></svg>