<svg xmlns="http://www.w3.org/2000/svg" width="80" height="67.33" viewBox="0 0 80 67.33"><title>Weather_Artboard 26</title><path d="M39.79,59.92a5.41,5.41,0,0,1-5.1-3.64H34.5a2.21,2.21,0,0,1-2.2-2.2v-6a.71.71,0,0,1,.71-.71H46.58a.71.71,0,0,1,.71.71v6a2.21,2.21,0,0,1-2.2,2.2h-.2A5.36,5.36,0,0,1,39.79,59.92ZM33.72,48.77v5.31a.78.78,0,0,0,.78.78h.72a.71.71,0,0,1,.69.52l.05.19a4,4,0,0,0,7.63.1l.09-.31a.71.71,0,0,1,.68-.5h.72a.78.78,0,0,0,.78-.78V48.77Z" style="fill:#bcbec0"/><path d="M37.85,48.67a.71.71,0,0,1-.71-.7,35.2,35.2,0,0,0-3.25-13.89,1.82,1.82,0,0,1,2-2.55,4.58,4.58,0,0,1,1.68.78,3.79,3.79,0,0,0,4.22,0,4.58,4.58,0,0,1,1.68-.78,1.82,1.82,0,0,1,2,2.55A35.2,35.2,0,0,0,42.18,48a.71.71,0,0,1-1.42,0,36.65,36.65,0,0,1,3.38-14.47.39.39,0,0,0,0-.41.39.39,0,0,0-.39-.15,3.45,3.45,0,0,0-1.14.57,5.21,5.21,0,0,1-5.79,0,3.45,3.45,0,0,0-1.14-.57.4.4,0,0,0-.44.56,36.65,36.65,0,0,1,3.38,14.47.71.71,0,0,1-.7.72Z" style="fill:#fabf78"/><path d="M20.73,37.68a.71.71,0,0,1-.26-1.37l2.81-1.09a.71.71,0,1,1,.51,1.33L21,37.63A.71.71,0,0,1,20.73,37.68Z" style="fill:#fabf78"/><path d="M22.82,25.15l-.15,0-2.92-.63a.71.71,0,0,1,.3-1.39l2.92.63a.71.71,0,0,1-.15,1.4Z" style="fill:#fabf78"/><path d="M28.52,16a.71.71,0,0,1-.5-.2l-2-2a.71.71,0,0,1,1-1l2,2a.71.71,0,0,1-.5,1.22Z" style="fill:#fabf78"/><path d="M40,11.77a.71.71,0,0,1-.71-.71V8.12a.71.71,0,1,1,1.42,0v2.94A.71.71,0,0,1,40,11.77Z" style="fill:#fabf78"/><path d="M59.17,37.68a.71.71,0,0,1-.26,0l-2.81-1.09a.71.71,0,1,1,.51-1.33l2.81,1.09a.71.71,0,0,1-.26,1.37Z" style="fill:#fabf78"/><path d="M57.18,25.15a.71.71,0,0,1-.15-1.4l2.92-.63a.71.71,0,1,1,.3,1.39l-2.92.63Z" style="fill:#fabf78"/><path d="M51.48,16a.71.71,0,0,1-.5-1.22l2-2a.71.71,0,1,1,1,1l-2,2A.71.71,0,0,1,51.48,16Z" style="fill:#fabf78"/><path d="M44.37,56.28H35.22a.71.71,0,0,1,0-1.42h9.15a.71.71,0,0,1,0,1.42Z" style="fill:#bcbec0"/><path d="M46.31,52.53h-13a.71.71,0,0,1,0-1.42h13a.71.71,0,0,1,0,1.42Z" style="fill:#bcbec0"/><path d="M33,48.77a.71.71,0,0,1-.71-.71c0-4.16-1.55-7.27-4-10.93a14,14,0,1,1,23.09,0c-2.48,3.61-4,6.7-4,10.89a.71.71,0,0,1-.71.71ZM39.8,16.7A12.56,12.56,0,0,0,29.41,36.33c2.51,3.68,4.11,6.85,4.28,11H45.9c.17-4.2,1.83-7.45,4.25-11A12.56,12.56,0,0,0,39.95,16.7Z" style="fill:#bcbec0"/></svg>