<svg xmlns="http://www.w3.org/2000/svg" width="80" height="67.33" viewBox="0 0 80 67.33"><title>Weather_Artboard 17</title><path d="M52.55,42.07h-.33l-.36,0H48a.8.8,0,1,1,0-1.6h4.56a7.5,7.5,0,0,0,2-14.73.8.8,0,0,1-.59-.73,8.59,8.59,0,0,0-15.62-4.49.8.8,0,0,1-1,.27,7.44,7.44,0,0,0-3-.62,7.54,7.54,0,0,0-7,4.83.8.8,0,0,1-.67.51,7.5,7.5,0,0,0-1.45,14.63l.08,0a3.77,3.77,0,0,0,1.49.3h3.73a.8.8,0,0,1,0,1.6H26.8a5.35,5.35,0,0,1-2.08-.42A9.1,9.1,0,0,1,26,24a9.15,9.15,0,0,1,8.31-5.41,9,9,0,0,1,3,.52,10.19,10.19,0,0,1,18.1,5.27,9.1,9.1,0,0,1-2.93,17.71Z" style="fill:#bcbec0"/><polygon points="41.48 42.51 39.31 45.7 37.15 42.51 39.31 39.31 41.48 42.51" style="fill:#8fa3b7"/><polygon points="35.31 48.9 33.15 52.09 30.99 48.9 33.15 45.7 35.31 48.9" style="fill:#8fa3b7"/><polygon points="47.16 48.9 45 52.09 42.84 48.9 45 45.7 47.16 48.9" style="fill:#8fa3b7"/></svg>