<svg xmlns="http://www.w3.org/2000/svg" width="80" height="67.33" viewBox="0 0 80 67.33"><title>Weather_Artboard 13</title><path d="M52.55,37.2h-.33l-.36,0H44a.8.8,0,1,1,0-1.6h8.56a7.5,7.5,0,0,0,2-14.73.8.8,0,0,1-.59-.73,8.59,8.59,0,0,0-15.62-4.49.8.8,0,0,1-1,.27,7.43,7.43,0,0,0-3-.62,7.54,7.54,0,0,0-7,4.83.8.8,0,0,1-.67.51,7.5,7.5,0,0,0-1.45,14.63l.08,0a3.76,3.76,0,0,0,1.49.31h7.73a.8.8,0,0,1,0,1.6H26.8a5.35,5.35,0,0,1-2.08-.42A9.1,9.1,0,0,1,26,19.11a9.15,9.15,0,0,1,8.31-5.41,9,9,0,0,1,3,.52,10.19,10.19,0,0,1,18.1,5.27A9.1,9.1,0,0,1,52.55,37.2Z" style="fill:#bcbec0"/><polygon points="34.05 44.38 41.9 35.86 37.74 35.86 31.14 44.59 29.96 46.15 31.99 46.1 37.2 46.01 29.81 56.96 39.11 45.72 39.9 44.76 38.49 44.67 34.05 44.38" style="fill:#fabf78"/></svg>