<svg xmlns="http://www.w3.org/2000/svg" width="80" height="67.33" viewBox="0 0 80 67.33"><title>Weather_Artboard 9</title><path d="M52.55,40.15h-.33l-.36,0H48a.8.8,0,1,1,0-1.6h4.56a7.5,7.5,0,0,0,2-14.73.8.8,0,0,1-.59-.73A8.59,8.59,0,0,0,38.31,18.6a.8.8,0,0,1-1,.27,7.44,7.44,0,0,0-3-.62,7.54,7.54,0,0,0-7,4.83.8.8,0,0,1-.67.51,7.5,7.5,0,0,0-1.45,14.63l.08,0a3.77,3.77,0,0,0,1.49.31h3.73a.8.8,0,0,1,0,1.6H26.8a5.35,5.35,0,0,1-2.08-.42A9.1,9.1,0,0,1,26,22.06a9.15,9.15,0,0,1,8.31-5.41,9,9,0,0,1,3,.52,10.19,10.19,0,0,1,18.1,5.27,9.1,9.1,0,0,1-2.93,17.71Z" style="fill:#bcbec0"/><path d="M38.81,38.9l-6.23,14a.8.8,0,1,0,1.46.65L40.56,38.9Z" style="fill:#8fa3b7"/><path d="M32.68,38.9l-3,6.75a.8.8,0,1,0,1.46.65l3.29-7.4Z" style="fill:#8fa3b7"/><path d="M44.94,38.9l-5,11.3a.8.8,0,1,0,1.46.65l5.32-12Z" style="fill:#8fa3b7"/></svg>