<svg xmlns="http://www.w3.org/2000/svg" width="80" height="67.33" viewBox="0 0 80 67.33"><title>Weather_Artboard 10</title><path d="M65.85,31H53.16a3.05,3.05,0,0,1-1.2-.25.8.8,0,0,1,.63-1.47,1.46,1.46,0,0,0,.58.12H65.81a3.29,3.29,0,0,0,.9-6.46.8.8,0,0,1-.59-.73,3.82,3.82,0,0,0-7-2,.8.8,0,0,1-1,.27,3.26,3.26,0,0,0-1.31-.27,3.31,3.31,0,0,0-3.07,2.12.8.8,0,0,1-.67.51,3.3,3.3,0,0,0-2.93,2.92.8.8,0,1,1-1.59-.17,4.91,4.91,0,0,1,3.89-4.27,4.89,4.89,0,0,1,5.73-2.52,5.42,5.42,0,0,1,9.42,2.77A4.89,4.89,0,0,1,65.85,31Z" style="fill:#bcbec0"/><path d="M25.47,38.41H13.59a2.92,2.92,0,0,1-1.11-.22,4.63,4.63,0,0,1,.46-8.94,4.66,4.66,0,0,1,4.13-2.54,4.59,4.59,0,0,1,1.25.17,5.13,5.13,0,0,1,8.89,2.64,7.17,7.17,0,0,1,2.1,1.61.8.8,0,1,1-1.21,1,5,5,0,0,0-1.85-1.31.8.8,0,0,1-.59-.73,3.53,3.53,0,0,0-6.42-1.85.8.8,0,0,1-1,.28,3,3,0,0,0-1.2-.25,3,3,0,0,0-2.83,2,.8.8,0,0,1-.67.51A3,3,0,0,0,13,36.67l.08,0a1.32,1.32,0,0,0,.52.11H25.44a4.3,4.3,0,0,0,2.69-1.17.8.8,0,1,1,1.17,1.09A5.79,5.79,0,0,1,25.47,38.41Z" style="fill:#bcbec0"/><path d="M40.8,46.87A12.88,12.88,0,1,1,53.69,34,12.9,12.9,0,0,1,40.8,46.87Zm0-24.17A11.28,11.28,0,1,0,52.08,34,11.3,11.3,0,0,0,40.8,22.7Z" style="fill:#fabf78"/><path d="M40.8,18.2a.8.8,0,0,1-.8-.8V10.33a.8.8,0,0,1,1.6,0V17.4A.8.8,0,0,1,40.8,18.2Z" style="fill:#fabf78"/><path d="M40.8,57.8A.8.8,0,0,1,40,57V49.94a.8.8,0,0,1,1.6,0V57A.8.8,0,0,1,40.8,57.8Z" style="fill:#fabf78"/><path d="M64.13,34.47H57.07a.8.8,0,0,1,0-1.6h7.07a.8.8,0,1,1,0,1.6Z" style="fill:#fabf78"/><path d="M24.53,34.47H17.47a.8.8,0,0,1,0-1.6h7.07a.8.8,0,0,1,0,1.6Z" style="fill:#fabf78"/><path d="M57.3,51.57a.8.8,0,0,1-.57-.23l-5-5a.8.8,0,0,1,1.13-1.13l5,5a.8.8,0,0,1-.57,1.37Z" style="fill:#fabf78"/><path d="M29.3,23.57a.8.8,0,0,1-.57-.23l-5-5a.8.8,0,0,1,1.13-1.13l5,5a.8.8,0,0,1-.57,1.37Z" style="fill:#fabf78"/><path d="M24.3,51.57a.8.8,0,0,1-.57-1.37l5-5a.8.8,0,1,1,1.13,1.13l-5,5A.8.8,0,0,1,24.3,51.57Z" style="fill:#fabf78"/><path d="M52.3,23.57a.8.8,0,0,1-.57-1.37l5-5a.8.8,0,0,1,1.13,1.13l-5,5A.8.8,0,0,1,52.3,23.57Z" style="fill:#fabf78"/></svg>