<svg xmlns="http://www.w3.org/2000/svg" width="80" height="67.33" viewBox="0 0 80 67.33"><title>Weather_Artboard 22</title><path d="M22.08,53.19c-.64,1.12-1.82,1.65-2.61,1.19s-.93-1.74-.28-2.86,3.66-3,3.66-3S22.72,52.07,22.08,53.19Z" style="fill:#8fa3b7"/><path d="M30.52,48c-.65,1.12-1.82,1.65-2.62,1.19s-.93-1.74-.28-2.86,3.66-3,3.66-3S31.16,46.91,30.52,48Z" style="fill:#8fa3b7"/><path d="M37,53.19c-.65,1.12-1.82,1.65-2.62,1.19s-.93-1.74-.28-2.86,3.66-3,3.66-3S37.6,52.07,37,53.19Z" style="fill:#8fa3b7"/><path d="M53.58,47.5a17.76,17.76,0,0,1-8.33-2.07A.8.8,0,0,1,46,44a16.2,16.2,0,0,0,20.5-4.56A17.77,17.77,0,0,1,46.67,15.1a16.24,16.24,0,0,0-7.93,8.2.8.8,0,0,1-1.47-.63,17.81,17.81,0,0,1,10.79-9.84A.8.8,0,0,1,49,14,16.18,16.18,0,0,0,68.06,37.39.8.8,0,0,1,69,38.55,17.8,17.8,0,0,1,53.58,47.5Z" style="fill:#fabf78"/><path d="M41.8,46.57h-.62a.8.8,0,0,1,0-1.6h.62a6.68,6.68,0,0,0,1.75-13.12.8.8,0,0,1-.59-.73,7.66,7.66,0,0,0-13.94-4,.8.8,0,0,1-1,.27,6.62,6.62,0,0,0-2.66-.55,6.72,6.72,0,0,0-6.24,4.3.8.8,0,0,1-.67.51,6.68,6.68,0,0,0-1.29,13l.08,0a3.33,3.33,0,0,0,1.31.27.8.8,0,0,1,0,1.6,4.91,4.91,0,0,1-1.9-.38,8.28,8.28,0,0,1,1.16-16.08,8.33,8.33,0,0,1,7.54-4.88,8.2,8.2,0,0,1,2.7.45,9.26,9.26,0,0,1,16.42,4.79,8.28,8.28,0,0,1-2.71,16.1Z" style="fill:#bcbec0"/></svg>