<svg xmlns="http://www.w3.org/2000/svg" width="80" height="67.33" viewBox="0 0 80 67.33"><title>Weather_Artboard 12</title><path d="M54.84,34a.8.8,0,0,1-.42-1.48A7.9,7.9,0,1,0,44,20.95a.8.8,0,0,1-1.27-1A9.5,9.5,0,1,1,55.26,33.83.8.8,0,0,1,54.84,34Z" style="fill:#fabf78"/><path d="M50.27,14.61a.8.8,0,0,1-.8-.8V8.72a.8.8,0,1,1,1.6,0v5.09A.8.8,0,0,1,50.27,14.61Z" style="fill:#fabf78"/><path d="M67.07,26.32H62a.8.8,0,0,1,0-1.6h5.09a.8.8,0,0,1,0,1.6Z" style="fill:#fabf78"/><path d="M62.15,38.63a.8.8,0,0,1-.57-.23L58,34.8a.8.8,0,0,1,1.13-1.13l3.6,3.6a.8.8,0,0,1-.57,1.37Z" style="fill:#fabf78"/><path d="M42,18.47a.8.8,0,0,1-.57-.23l-3.59-3.59A.8.8,0,0,1,39,13.51l3.6,3.6A.8.8,0,0,1,42,18.47Z" style="fill:#fabf78"/><path d="M58.55,18.47A.8.8,0,0,1,58,17.11l3.6-3.6a.8.8,0,0,1,1.13,1.13l-3.6,3.59A.8.8,0,0,1,58.55,18.47Z" style="fill:#fabf78"/><path d="M46.33,45.33H46l-.36,0H41.78a.8.8,0,0,1,0-1.6h4.56A7.5,7.5,0,0,0,48.3,29a.8.8,0,0,1-.59-.73,8.59,8.59,0,0,0-15.62-4.49.8.8,0,0,1-1,.28,7.44,7.44,0,0,0-3-.62,7.54,7.54,0,0,0-7,4.83.8.8,0,0,1-.67.51A7.5,7.5,0,0,0,19,43.4l.08,0a3.75,3.75,0,0,0,1.49.31h3.73a.8.8,0,1,1,0,1.6H20.58a5.35,5.35,0,0,1-2.08-.42,9.1,9.1,0,0,1,1.32-17.67,9.15,9.15,0,0,1,8.31-5.41,9,9,0,0,1,3,.52,10.19,10.19,0,0,1,18.1,5.27,9.1,9.1,0,0,1-2.93,17.71Z" style="fill:#bcbec0"/><path d="M32.36,44.3l-6.23,14a.8.8,0,1,0,1.46.65L34.11,44.3Z" style="fill:#8fa3b7"/><path d="M26.23,44.3l-3,6.75a.8.8,0,1,0,1.46.65L28,44.3Z" style="fill:#8fa3b7"/><path d="M38.49,44.3l-5,11.3a.8.8,0,1,0,1.46.65l5.32-12Z" style="fill:#8fa3b7"/></svg>