<svg xmlns="http://www.w3.org/2000/svg" width="80" height="67.33" viewBox="0 0 80 67.33"><title>Weather_Artboard 6</title><path d="M54.2,40.49A.8.8,0,0,1,53.78,39,7.9,7.9,0,1,0,43.36,27.49a.8.8,0,0,1-1.27-1A9.5,9.5,0,1,1,54.62,40.37.8.8,0,0,1,54.2,40.49Z" style="fill:#fabf78"/><path d="M49.63,21.15a.8.8,0,0,1-.8-.8V15.26a.8.8,0,0,1,1.6,0v5.08A.8.8,0,0,1,49.63,21.15Z" style="fill:#fabf78"/><path d="M66.43,32.86H61.34a.8.8,0,0,1,0-1.6h5.09a.8.8,0,1,1,0,1.6Z" style="fill:#fabf78"/><path d="M61.51,45.17a.8.8,0,0,1-.57-.23l-3.6-3.6a.8.8,0,0,1,1.13-1.13l3.6,3.6a.8.8,0,0,1-.57,1.37Z" style="fill:#fabf78"/><path d="M41.35,25a.8.8,0,0,1-.57-.23l-3.6-3.6A.8.8,0,0,1,38.32,20l3.6,3.6A.8.8,0,0,1,41.35,25Z" style="fill:#fabf78"/><path d="M57.91,25a.8.8,0,0,1-.57-1.37l3.6-3.6a.8.8,0,0,1,1.13,1.13l-3.6,3.6A.8.8,0,0,1,57.91,25Z" style="fill:#fabf78"/><path d="M47,52.87H21.22a5.37,5.37,0,0,1-2.08-.42,9.1,9.1,0,0,1,1.32-17.67,9.15,9.15,0,0,1,8.31-5.41,9,9,0,0,1,3,.52,10.19,10.19,0,0,1,18.1,5.27A9.1,9.1,0,0,1,47,52.87Zm-.33-1.62H47a7.5,7.5,0,0,0,2-14.73.8.8,0,0,1-.59-.73,8.59,8.59,0,0,0-15.62-4.49.8.8,0,0,1-1,.27,7.43,7.43,0,0,0-3-.62,7.54,7.54,0,0,0-7,4.83.8.8,0,0,1-.67.51,7.5,7.5,0,0,0-1.45,14.63l.08,0a3.77,3.77,0,0,0,1.49.31H46.64Z" style="fill:#bcbec0"/></svg>