<svg xmlns="http://www.w3.org/2000/svg" width="80" height="67.33" viewBox="0 0 80 67.33"><title>Weather_Artboard 15</title><path d="M52.55,41.55H48a.8.8,0,0,1,0-1.6h4.56a7.5,7.5,0,0,0,2-14.73.8.8,0,0,1-.59-.73A8.59,8.59,0,0,0,38.31,20a.8.8,0,0,1-1,.27,7.43,7.43,0,0,0-3-.62,7.54,7.54,0,0,0-7,4.83.8.8,0,0,1-.67.51,7.5,7.5,0,0,0-1.45,14.63l.08,0a3.77,3.77,0,0,0,1.49.3h3.73a.8.8,0,0,1,0,1.6H26.8a5.38,5.38,0,0,1-2.08-.42A9.1,9.1,0,0,1,26,23.46,9.15,9.15,0,0,1,34.35,18a9,9,0,0,1,3,.52,10.19,10.19,0,0,1,18.1,5.27,9.09,9.09,0,0,1-2.93,17.71Z" style="fill:#bcbec0"/><path d="M34.19,48.84H32.31l1.32-1.32A.43.43,0,1,0,33,46.9L31.7,48.23V46.36a.43.43,0,1,0-.86,0v1.87L29.52,46.9a.43.43,0,1,0-.61.61l1.32,1.32H28.36a.43.43,0,1,0,0,.86h1.87L28.91,51a.43.43,0,0,0,.61.61l1.32-1.32v1.87a.43.43,0,0,0,.86,0V50.31L33,51.63a.43.43,0,0,0,.61-.61L32.32,49.7h1.87a.43.43,0,1,0,0-.86Z" style="fill:#8fa3b7"/><path d="M49.67,48.84H47.8l1.32-1.32a.43.43,0,1,0-.61-.61l-1.32,1.32V46.36a.43.43,0,1,0-.86,0v1.87L45,46.9a.43.43,0,1,0-.61.61l1.32,1.32H43.84a.43.43,0,1,0,0,.86h1.87L44.39,51a.43.43,0,0,0,.61.61l1.32-1.32v1.87a.43.43,0,0,0,.86,0V50.31l1.32,1.32a.43.43,0,1,0,.61-.61L47.8,49.7h1.87a.43.43,0,1,0,0-.86Z" style="fill:#8fa3b7"/><path d="M42.42,40.05a.43.43,0,0,0-.43-.43H40.11l1.32-1.32a.43.43,0,1,0-.61-.61L39.5,39V37.14a.43.43,0,1,0-.86,0V39l-1.32-1.32a.43.43,0,1,0-.61.61L38,39.62H36.16a.43.43,0,0,0,0,.86H38l-1.32,1.32a.43.43,0,0,0,.61.61l1.32-1.32V43a.43.43,0,1,0,.86,0V41.09l1.32,1.32a.43.43,0,0,0,.61-.61l-1.32-1.32H42A.43.43,0,0,0,42.42,40.05Z" style="fill:#8fa3b7"/></svg>