<svg xmlns="http://www.w3.org/2000/svg" width="80" height="67.33" viewBox="0 0 80 67.33"><title>Weather_Artboard 24</title><path d="M28.88,42.71l-6.23,14a.8.8,0,1,0,1.46.65l6.52-14.64Z" style="fill:#8fa3b7"/><path d="M22.75,42.71l-3,6.75a.8.8,0,1,0,1.46.65l3.29-7.4Z" style="fill:#8fa3b7"/><path d="M35,42.71,30,54a.8.8,0,0,0,.41,1.06.79.79,0,0,0,.32.07.8.8,0,0,0,.73-.47l5.32-12Z" style="fill:#8fa3b7"/><path d="M53.58,44.22a17.76,17.76,0,0,1-8.33-2.07A.8.8,0,0,1,46,40.74a16.21,16.21,0,0,0,20.5-4.56A17.77,17.77,0,0,1,46.67,11.82a16.16,16.16,0,0,0-8.1,8.61.8.8,0,1,1-1.49-.59,17.45,17.45,0,0,1,1.34-2.68,17.85,17.85,0,0,1,9.63-7.61A.8.8,0,0,1,49,10.71,16.18,16.18,0,0,0,68.06,34.12.8.8,0,0,1,69,35.27a17.81,17.81,0,0,1-15.42,8.95Z" style="fill:#fabf78"/><path d="M41.8,43.3h-.62a.8.8,0,0,1,0-1.6h.62a6.68,6.68,0,0,0,1.75-13.12.8.8,0,0,1-.59-.73,7.66,7.66,0,0,0-13.94-4,.8.8,0,0,1-1,.27,6.63,6.63,0,0,0-2.66-.55,6.72,6.72,0,0,0-6.24,4.3.8.8,0,0,1-.67.51,6.68,6.68,0,0,0-1.29,13l.08,0a3.32,3.32,0,0,0,1.31.27.8.8,0,0,1,0,1.6,4.9,4.9,0,0,1-1.9-.38,8.28,8.28,0,0,1,1.16-16.08A8.34,8.34,0,0,1,25.39,22a8.21,8.21,0,0,1,2.7.45A9.26,9.26,0,0,1,44.51,27.2,8.28,8.28,0,0,1,41.8,43.3Z" style="fill:#bcbec0"/></svg>