<svg xmlns="http://www.w3.org/2000/svg" width="80" height="67.33" viewBox="0 0 80 67.33"><title>Weather_Artboard 18</title><path d="M44.07,31.08H20.86a.8.8,0,0,1,0-1.6H44.07a6.91,6.91,0,0,0,6.9-6.9,5.37,5.37,0,0,0-5.36-5.36,4.13,4.13,0,0,0-4.13,4.13,3.15,3.15,0,0,0,3.14,3.14A2.36,2.36,0,0,0,47,22.13a.8.8,0,1,1,1.6,0,4,4,0,0,1-4,4,4.75,4.75,0,0,1-4.74-4.74,5.74,5.74,0,0,1,5.73-5.73,7,7,0,0,1,7,7A8.51,8.51,0,0,1,44.07,31.08Z" style="fill:#bcbec0"/><path d="M37.94,47.39a4.21,4.21,0,0,1-4.2-4.2,3.52,3.52,0,0,1,3.52-3.52.8.8,0,0,1,0,1.6,1.92,1.92,0,0,0-1.92,1.92,2.6,2.6,0,0,0,2.6,2.6,3.46,3.46,0,0,0,3.45-3.45,4.52,4.52,0,0,0-4.52-4.52h-16a.8.8,0,0,1,0-1.6h16A6.12,6.12,0,0,1,43,42.34,5.06,5.06,0,0,1,37.94,47.39Z" style="fill:#bcbec0"/><path d="M51.51,51.72a6.91,6.91,0,0,1-6.9-6.9,5.69,5.69,0,0,1,5.68-5.68A4.71,4.71,0,0,1,55,43.84a.8.8,0,0,1-1.6,0,3.11,3.11,0,0,0-3.11-3.11,4.09,4.09,0,0,0-4.08,4.08,5.31,5.31,0,0,0,5.3,5.3,6.84,6.84,0,0,0,6.83-6.83,8.75,8.75,0,0,0-8.74-8.74H20.86a.8.8,0,0,1,0-1.6H49.6A10.35,10.35,0,0,1,59.94,43.29,8.44,8.44,0,0,1,51.51,51.72Z" style="fill:#bcbec0"/><path d="M33.66,28H20.86a.8.8,0,0,1,0-1.6h12.8a3.45,3.45,0,0,0,3.45-3.45,2.6,2.6,0,0,0-2.6-2.6,1.92,1.92,0,0,0-1.92,1.92A1.38,1.38,0,0,0,34,23.62a.8.8,0,0,1,0,1.6,3,3,0,0,1-3-3,3.52,3.52,0,0,1,3.52-3.52,4.2,4.2,0,0,1,4.2,4.2A5.05,5.05,0,0,1,33.66,28Z" style="fill:#bcbec0"/></svg>