<svg xmlns="http://www.w3.org/2000/svg" width="80" height="67.33" viewBox="0 0 80 67.33"><title>Weather_Artboard 14</title><path d="M28.82,43.85C28.18,45,27,45.49,26.21,45s-.93-1.74-.28-2.86,3.66-3,3.66-3S29.47,42.73,28.82,43.85Z" style="fill:#8fa3b7"/><path d="M40.11,54.34c-.65,1.12-1.82,1.65-2.62,1.19s-.92-1.74-.28-2.86,3.66-3,3.66-3S40.75,53.23,40.11,54.34Z" style="fill:#8fa3b7"/><path d="M46.14,43.84C45.5,45,44.33,45.49,43.53,45s-.93-1.74-.28-2.86,3.66-3,3.66-3S46.79,42.73,46.14,43.84Z" style="fill:#8fa3b7"/><path d="M52.55,37.12h-.36l-.33,0H48a.8.8,0,0,1,0-1.6h4.56a7.5,7.5,0,0,0,2-14.73.8.8,0,0,1-.59-.73,8.59,8.59,0,0,0-15.62-4.49.8.8,0,0,1-1,.27,7.43,7.43,0,0,0-3-.62,7.54,7.54,0,0,0-7,4.83.8.8,0,0,1-.67.51,7.5,7.5,0,0,0-1.45,14.63l.08,0a3.79,3.79,0,0,0,1.49.3h2.93a.8.8,0,1,1,0,1.6H26.8a5.38,5.38,0,0,1-2.08-.42A9.1,9.1,0,0,1,26,19a9.15,9.15,0,0,1,8.31-5.41,9,9,0,0,1,3,.52,10.19,10.19,0,0,1,18.1,5.27,9.1,9.1,0,0,1-2.93,17.71Z" style="fill:#bcbec0"/><polygon points="34.18 44.46 42.03 35.94 37.87 35.94 31.28 44.66 30.1 46.22 32.13 46.18 37.33 46.08 29.95 57.04 39.25 45.8 40.04 44.84 38.63 44.75 34.18 44.46" style="fill:#dfc69e"/></svg>