<svg xmlns="http://www.w3.org/2000/svg" width="80" height="67.33" viewBox="0 0 80 67.33"><title>Weather_Artboard 8</title><path d="M54.84,36.55a.8.8,0,0,1-.42-1.48A7.9,7.9,0,1,0,44,23.55a.8.8,0,0,1-1.27-1A9.5,9.5,0,1,1,55.26,36.43.8.8,0,0,1,54.84,36.55Z" style="fill:#fabf78"/><path d="M50.27,17.21a.8.8,0,0,1-.8-.8V11.33a.8.8,0,1,1,1.6,0v5.08A.8.8,0,0,1,50.27,17.21Z" style="fill:#fabf78"/><path d="M67.07,28.92H62a.8.8,0,0,1,0-1.6h5.09a.8.8,0,0,1,0,1.6Z" style="fill:#fabf78"/><path d="M62.15,41.23a.8.8,0,0,1-.57-.23L58,37.4a.8.8,0,0,1,1.13-1.13l3.6,3.6a.8.8,0,0,1-.57,1.37Z" style="fill:#fabf78"/><path d="M42,21.08a.8.8,0,0,1-.57-.23l-3.59-3.6A.8.8,0,0,1,39,16.11l3.6,3.6A.8.8,0,0,1,42,21.08Z" style="fill:#fabf78"/><path d="M58.55,21.08A.8.8,0,0,1,58,19.71l3.6-3.6a.8.8,0,0,1,1.13,1.13l-3.6,3.6A.8.8,0,0,1,58.55,21.08Z" style="fill:#fabf78"/><path d="M25.33,55.45c-.64,1.12-1.82,1.65-2.61,1.19s-.93-1.74-.28-2.86,3.66-3,3.66-3S26,54.34,25.33,55.45Z" style="fill:#8fa3b7"/><path d="M33.77,49.49c-.65,1.12-1.82,1.65-2.62,1.19s-.92-1.74-.28-2.86,3.66-3,3.66-3S34.41,48.37,33.77,49.49Z" style="fill:#8fa3b7"/><path d="M40.21,55.45c-.65,1.12-1.82,1.65-2.62,1.19s-.92-1.74-.28-2.86,3.66-3,3.66-3S40.85,54.34,40.21,55.45Z" style="fill:#8fa3b7"/><path d="M46.33,47.93H46l-.36,0H41.78a.8.8,0,0,1,0-1.6h4.56a7.5,7.5,0,0,0,2-14.73.8.8,0,0,1-.59-.73,8.59,8.59,0,0,0-15.62-4.49.8.8,0,0,1-1,.27,7.44,7.44,0,0,0-3-.62,7.54,7.54,0,0,0-7,4.83.8.8,0,0,1-.67.51A7.5,7.5,0,0,0,19,46l.08,0a3.76,3.76,0,0,0,1.49.31h3.73a.8.8,0,1,1,0,1.6H20.58a5.35,5.35,0,0,1-2.08-.42,9.1,9.1,0,0,1,1.32-17.67,9.15,9.15,0,0,1,8.31-5.41,9,9,0,0,1,3,.52,10.19,10.19,0,0,1,18.1,5.27,9.1,9.1,0,0,1-2.93,17.71Z" style="fill:#bcbec0"/></svg>