<svg xmlns="http://www.w3.org/2000/svg" width="80" height="67.33" viewBox="0 0 80 67.33"><title>Weather_Artboard 25</title><path d="M25.48,51.85H23.77L25,50.64a.39.39,0,1,0-.56-.56L23.22,51.3V49.59a.39.39,0,1,0-.79,0v1.7l-1.21-1.21a.39.39,0,1,0-.55.56l1.21,1.21H20.17a.39.39,0,1,0,0,.79h1.71l-1.21,1.21a.39.39,0,0,0,.55.56l1.21-1.21V54.9a.39.39,0,1,0,.79,0V53.2l1.21,1.21a.39.39,0,0,0,.56-.56l-1.21-1.21h1.71a.39.39,0,1,0,0-.79Z" style="fill:#8fa3b7"/><path d="M39.6,51.85H37.9l1.21-1.21a.39.39,0,0,0-.56-.56L37.34,51.3V49.59a.39.39,0,1,0-.79,0V51.3l-1.21-1.21a.39.39,0,0,0-.56.56L36,51.85H34.29a.39.39,0,1,0,0,.79H36l-1.21,1.21a.39.39,0,0,0,.56.56l1.21-1.21V54.9a.39.39,0,1,0,.79,0V53.2l1.21,1.21a.39.39,0,0,0,.56-.56L37.9,52.64H39.6a.39.39,0,1,0,0-.79Z" style="fill:#8fa3b7"/><path d="M33,43.84a.39.39,0,0,0-.39-.39H30.89l1.21-1.21a.39.39,0,0,0,0-.56.4.4,0,0,0-.56,0l-1.21,1.21V41.18a.39.39,0,1,0-.79,0v1.71l-1.21-1.21a.39.39,0,0,0-.56.56L29,43.44H27.28a.39.39,0,0,0,0,.79H29l-1.21,1.21a.39.39,0,0,0,.56.56l1.21-1.21v1.71a.39.39,0,1,0,.79,0V44.79L31.54,46a.39.39,0,0,0,.56-.56l-1.21-1.21h1.71A.39.39,0,0,0,33,43.84Z" style="fill:#8fa3b7"/><path d="M53.58,46.74a17.76,17.76,0,0,1-8.33-2.07L46,43.26A16.2,16.2,0,0,0,66.5,38.7,17.77,17.77,0,0,1,46.67,14.35a16.24,16.24,0,0,0-8.24,9l-1.5-.56A17.81,17.81,0,0,1,48.06,12.08.8.8,0,0,1,49,13.23,16.18,16.18,0,0,0,68.06,36.64.8.8,0,0,1,69,37.8a17.81,17.81,0,0,1-15.42,8.95Z" style="fill:#fabf78"/><path d="M41.8,45.82h-.62a.8.8,0,1,1,0-1.6h.62A6.68,6.68,0,0,0,43.55,31.1a.8.8,0,0,1-.59-.73,7.66,7.66,0,0,0-13.94-4,.8.8,0,0,1-1,.27,6.63,6.63,0,0,0-2.66-.55,6.72,6.72,0,0,0-6.24,4.3.8.8,0,0,1-.67.51,6.68,6.68,0,0,0-1.29,13l.08,0a3.33,3.33,0,0,0,1.31.27.8.8,0,0,1,0,1.6,4.91,4.91,0,0,1-1.9-.38,8.28,8.28,0,0,1,1.16-16.08,8.33,8.33,0,0,1,7.55-4.88,8.21,8.21,0,0,1,2.7.45,9.26,9.26,0,0,1,16.42,4.79,8.28,8.28,0,0,1-2.71,16.1Z" style="fill:#bcbec0"/></svg>