<svg xmlns="http://www.w3.org/2000/svg" width="80" height="67.33" viewBox="0 0 80 67.33"><title>Weather_Artboard 21</title><path d="M64.35,43.41l-1.13-1.13a6.68,6.68,0,0,0-3-11.17.8.8,0,0,1-.59-.73,7.66,7.66,0,0,0-13-5.1l-1.12-1.14a9.26,9.26,0,0,1,15.68,5.6,8.28,8.28,0,0,1,3.14,13.68Z" style="fill:#bcbec0"/><path d="M53.58,51a17.76,17.76,0,0,1-8.33-2.07L46,47.53A16.2,16.2,0,0,0,66.5,43,17.77,17.77,0,0,1,46.67,18.62a16.24,16.24,0,0,0-8.24,9L36.93,27A17.81,17.81,0,0,1,48.06,16.35.8.8,0,0,1,49,17.51,16.18,16.18,0,0,0,68.06,40.91.8.8,0,0,1,69,42.07,17.8,17.8,0,0,1,53.58,51Z" style="fill:#fabf78"/><path d="M41.8,50.1H18.59a4.91,4.91,0,0,1-1.9-.38,8.28,8.28,0,0,1,1.16-16.08,8.33,8.33,0,0,1,7.54-4.88,8.21,8.21,0,0,1,2.7.45A9.26,9.26,0,0,1,44.51,34,8.28,8.28,0,0,1,41.8,50.1Zm-.3-1.62h.3a6.68,6.68,0,0,0,1.75-13.12.8.8,0,0,1-.59-.73,7.66,7.66,0,0,0-13.94-4,.8.8,0,0,1-1,.27,6.63,6.63,0,0,0-2.66-.55,6.72,6.72,0,0,0-6.24,4.3.8.8,0,0,1-.67.51,6.68,6.68,0,0,0-1.29,13l.08,0a3.33,3.33,0,0,0,1.31.27H41.5Z" style="fill:#bcbec0"/></svg>