<svg xmlns="http://www.w3.org/2000/svg" width="80" height="67.33" viewBox="0 0 80 67.33"><title>Weather_Artboard 11</title><path d="M40.7,43.73H24.23a5.38,5.38,0,0,1-2.08-.42,9.1,9.1,0,0,1,1.32-17.67,9.15,9.15,0,0,1,8.31-5.41,9,9,0,0,1,3,.52A10.19,10.19,0,0,1,52.92,26,9.1,9.1,0,0,1,58.8,36.91l-1.55-.4A7.5,7.5,0,0,0,52,27.4a.8.8,0,0,1-.59-.73,8.59,8.59,0,0,0-15.62-4.49.8.8,0,0,1-1,.27,7.43,7.43,0,0,0-3-.62,7.54,7.54,0,0,0-7,4.83.8.8,0,0,1-.67.51A7.5,7.5,0,0,0,22.67,41.8l.08,0a3.77,3.77,0,0,0,1.49.31H40.7Z" style="fill:#bcbec0"/><path d="M58.79,50.43H44.46a3.33,3.33,0,0,1-1.28-.25,5.42,5.42,0,0,1,.61-10.49,5.41,5.41,0,0,1,6.44-2.82A6,6,0,0,1,60.75,40a5.42,5.42,0,0,1-2,10.47Zm-.19-1.61h.19a3.82,3.82,0,0,0,1-7.5.8.8,0,0,1-.59-.73,4.43,4.43,0,0,0-8.05-2.31.8.8,0,0,1-1,.27,3.78,3.78,0,0,0-1.52-.32A3.84,3.84,0,0,0,45.1,40.7a.8.8,0,0,1-.67.51,3.82,3.82,0,0,0-.74,7.45l.08,0a1.75,1.75,0,0,0,.69.14H58.61Z" style="fill:#bcbec0"/></svg>