<svg xmlns="http://www.w3.org/2000/svg" width="80" height="67.33" viewBox="0 0 80 67.33"><title>Weather_Artboard 23</title><polygon points="25.82 47.58 33.67 39.06 29.51 39.06 22.91 47.78 21.73 49.34 23.76 49.3 28.97 49.2 21.59 60.16 30.88 48.91 31.67 47.95 30.26 47.86 25.82 47.58" style="fill:#fabf78"/><path d="M53.58,41.89a17.76,17.76,0,0,1-8.33-2.07L46,38.4a16.2,16.2,0,0,0,20.5-4.56A17.77,17.77,0,0,1,46.67,9.49a16.24,16.24,0,0,0-8.24,9l-1.5-.56A17.8,17.8,0,0,1,48.06,7.22.8.8,0,0,1,49,8.38,16.18,16.18,0,0,0,68.06,31.78.8.8,0,0,1,69,32.94a17.81,17.81,0,0,1-15.42,8.95Z" style="fill:#fabf78"/><path d="M41.8,41H34.64a.8.8,0,1,1,0-1.6H41.8a6.68,6.68,0,0,0,1.75-13.12.8.8,0,0,1-.59-.73A7.66,7.66,0,0,0,29,21.5a.8.8,0,0,1-1,.27,6.62,6.62,0,0,0-2.66-.55,6.72,6.72,0,0,0-6.24,4.3.8.8,0,0,1-.67.51,6.68,6.68,0,0,0-1.29,13l.08,0a3.31,3.31,0,0,0,1.31.27h7.75a.8.8,0,1,1,0,1.6H18.59a4.91,4.91,0,0,1-1.9-.38,8.28,8.28,0,0,1,1.16-16.08,8.33,8.33,0,0,1,7.54-4.88,8.2,8.2,0,0,1,2.7.45,9.26,9.26,0,0,1,16.42,4.79A8.28,8.28,0,0,1,41.8,41Z" style="fill:#bcbec0"/></svg>