<svg xmlns="http://www.w3.org/2000/svg" width="80" height="67.33" viewBox="0 0 80 67.33"><title>Weather_Artboard 16</title><path d="M31.55,49.43c-.64,1.12-1.82,1.65-2.61,1.19s-.93-1.74-.28-2.86,3.66-3,3.66-3S32.19,48.31,31.55,49.43Z" style="fill:#8fa3b7"/><path d="M40,44.27c-.65,1.12-1.82,1.65-2.62,1.19s-.92-1.74-.28-2.86,3.66-3,3.66-3S40.63,43.15,40,44.27Z" style="fill:#8fa3b7"/><path d="M52.55,42.71h-.33l-.36,0H48a.8.8,0,1,1,0-1.6h4.56a7.5,7.5,0,0,0,2-14.73.8.8,0,0,1-.59-.73,8.59,8.59,0,0,0-15.62-4.49.8.8,0,0,1-1,.27,7.42,7.42,0,0,0-3-.62,7.54,7.54,0,0,0-7,4.83.81.81,0,0,1-.67.51,7.5,7.5,0,0,0-1.45,14.63l.08,0a3.77,3.77,0,0,0,1.49.31h3.73a.8.8,0,0,1,0,1.6H26.8a5.36,5.36,0,0,1-2.08-.42A9.1,9.1,0,0,1,26,24.62a9.15,9.15,0,0,1,8.31-5.41,9,9,0,0,1,3,.52A10.19,10.19,0,0,1,55.48,25a9.1,9.1,0,0,1-2.93,17.71Z" style="fill:#bcbec0"/><path d="M48,47.68H46.13l1.32-1.32a.43.43,0,0,0-.61-.61l-1.32,1.32V45.2a.43.43,0,1,0-.86,0v1.87l-1.32-1.32a.43.43,0,0,0-.61.61l1.32,1.32H42.18a.43.43,0,1,0,0,.86h1.87l-1.32,1.32a.43.43,0,0,0,.61.61l1.32-1.32V51a.43.43,0,1,0,.86,0V49.15l1.32,1.32a.43.43,0,0,0,.61-.61l-1.32-1.32H48a.43.43,0,1,0,0-.86Z" style="fill:#8fa3b7"/></svg>