<svg xmlns="http://www.w3.org/2000/svg" width="80" height="67.33" viewBox="0 0 80 67.33"><title>Weather_Artboard 2</title><path d="M40,46.87A12.89,12.89,0,1,1,52.89,34,12.9,12.9,0,0,1,40,46.87ZM40,22.7A11.29,11.29,0,1,0,51.29,34,11.3,11.3,0,0,0,40,22.7Z" style="fill:#fabf78"/><path d="M40,18.2a.8.8,0,0,1-.8-.8V10.33a.8.8,0,0,1,1.6,0V17.4A.8.8,0,0,1,40,18.2Z" style="fill:#fabf78"/><path d="M40,57.8a.8.8,0,0,1-.8-.8V49.93a.8.8,0,1,1,1.6,0V57A.8.8,0,0,1,40,57.8Z" style="fill:#fabf78"/><path d="M63.33,34.47H56.27a.8.8,0,1,1,0-1.6h7.06a.8.8,0,1,1,0,1.6Z" style="fill:#fabf78"/><path d="M23.73,34.47H16.67a.8.8,0,1,1,0-1.6h7.07a.8.8,0,1,1,0,1.6Z" style="fill:#fabf78"/><path d="M56.5,51.57a.8.8,0,0,1-.57-.23l-5-5a.8.8,0,0,1,1.13-1.13l5,5a.8.8,0,0,1-.57,1.37Z" style="fill:#fabf78"/><path d="M28.5,23.57a.8.8,0,0,1-.57-.23l-5-5a.8.8,0,0,1,1.13-1.13l5,5a.8.8,0,0,1-.57,1.37Z" style="fill:#fabf78"/><path d="M23.5,51.57a.8.8,0,0,1-.57-1.37l5-5a.8.8,0,0,1,1.13,1.13l-5,5A.8.8,0,0,1,23.5,51.57Z" style="fill:#fabf78"/><path d="M51.5,23.57a.8.8,0,0,1-.57-1.37l5-5a.8.8,0,0,1,1.13,1.13l-5,5A.8.8,0,0,1,51.5,23.57Z" style="fill:#fabf78"/></svg>